<?xml version="1.0" standalone="no"?>
<!DOCTYPE svg PUBLIC "-//W3C//DTD SVG 20010904//EN"
 "http://www.w3.org/TR/2001/REC-SVG-20010904/DTD/svg10.dtd">
<svg version="1.0" xmlns="http://www.w3.org/2000/svg"
 width="1280.000000pt" height="708.000000pt" viewBox="0 0 1280.000000 708.000000"
 preserveAspectRatio="xMidYMid meet">
<metadata>
Created by potrace 1.15, written by Peter Selinger 2001-2017
</metadata>
<g transform="translate(0.000000,708.000000) scale(0.100000,-0.100000)"
fill="#000000" stroke="none">
<path d="M11298 7075 c-2 -3 -71 -16 -152 -30 -189 -32 -438 -51 -846 -65
-179 -6 -368 -16 -420 -21 -187 -20 -697 -22 -1040 -4 -442 22 -946 30 -1095
17 -271 -25 -724 -187 -1002 -360 -245 -152 -429 -336 -549 -550 -26 -45 -48
-81 -49 -80 -2 2 -15 35 -30 73 -106 269 -334 496 -645 644 -135 63 -256 102
-453 146 -319 71 -310 70 -772 69 -232 -1 -523 -7 -650 -15 -306 -19 -1537
-16 -2160 4 -520 17 -499 20 -542 -59 -30 -54 -46 -154 -87 -545 -97 -911
-184 -1900 -316 -3554 -39 -486 -62 -768 -106 -1295 -21 -252 -34 -461 -32
-514 l4 -89 -24 28 c-21 25 -23 35 -19 94 7 98 34 566 62 1081 14 250 48 826
76 1280 27 454 63 1046 79 1315 36 597 85 1478 100 1790 13 286 18 331 36 350
11 11 38 15 102 15 79 0 85 1 70 16 -21 22 -97 29 -141 14 -20 -6 -47 -24 -60
-40 -22 -26 -24 -39 -31 -186 -18 -413 -111 -2072 -156 -2773 -40 -627 -129
-2214 -145 -2576 -3 -71 -10 -186 -16 -255 -14 -161 -5 -195 61 -227 41 -20
43 -22 17 -23 -39 0 -81 24 -94 53 -18 40 3 1211 37 2062 21 532 57 1255 90
1835 121 2099 119 2073 144 2095 13 11 31 25 41 31 22 12 12 34 -14 34 -10 0
-59 14 -109 30 -161 53 -192 41 -216 -85 -45 -240 -56 -400 -66 -1027 -5 -304
-14 -577 -19 -606 -18 -95 -24 -292 -26 -782 -1 -508 -15 -1124 -35 -1542 -7
-136 -10 -347 -8 -470 9 -404 -37 -1206 -82 -1457 -6 -30 -10 -96 -10 -146 0
-87 1 -93 27 -117 75 -70 168 -95 393 -108 96 -5 225 -15 285 -21 61 -6 477
-14 925 -19 810 -9 872 -11 1150 -50 270 -37 354 -41 1005 -50 358 -5 688 -14
735 -19 239 -29 353 -34 920 -41 725 -10 792 -16 899 -78 158 -94 242 -126
358 -137 62 -6 73 -4 118 20 136 74 260 88 540 61 224 -21 771 -41 2115 -76
1553 -41 2225 -69 3005 -127 260 -19 275 -17 308 47 28 55 19 184 -25 350 -58
219 -81 270 -123 270 -36 0 -58 -27 -51 -63 l6 -30 -87 6 c-281 21 -915 28
-1476 18 -1057 -20 -1342 -24 -1337 -18 4 4 432 28 785 42 72 3 465 14 875 25
1064 28 1262 37 1278 58 18 23 15 50 -13 130 -32 92 -32 104 7 147 l31 36 -27
65 c-14 36 -24 69 -21 73 2 5 18 14 34 21 16 6 32 18 34 25 3 7 -7 70 -23 141
-43 193 -111 554 -185 979 -104 602 -172 969 -221 1203 -25 119 -47 235 -50
257 -2 22 -11 114 -19 205 -9 91 -38 345 -65 565 -78 631 -94 802 -105 1090
-7 187 -21 257 -61 305 -30 35 -73 60 -103 60 -23 0 -22 -7 -51 240 -22 182
-63 409 -81 441 -5 11 -14 19 -19 19 -21 0 -50 46 -55 89 -9 71 -30 110 -62
116 -55 12 -72 25 -94 67 -37 75 -55 88 -119 88 -31 0 -59 -2 -62 -5z m129
-59 c22 -21 19 -9 183 -761 91 -420 222 -1055 385 -1866 96 -477 185 -904 199
-950 65 -217 102 -397 180 -889 57 -359 81 -487 122 -655 13 -55 33 -174 44
-265 20 -171 39 -260 65 -310 20 -39 19 -73 -3 -93 -22 -20 -65 -30 -277 -61
-471 -70 -904 -108 -1865 -166 -1003 -60 -1400 -95 -1880 -167 -267 -39 -369
-52 -700 -88 -468 -51 -957 -130 -1195 -192 -33 -8 -76 -15 -95 -14 -28 1 -41
-6 -62 -32 -21 -25 -30 -29 -37 -19 -16 25 -62 417 -86 737 -23 314 -34 547
-45 1005 -17 740 -19 794 -31 835 -8 26 -13 144 -15 330 -1 184 -8 339 -18
425 -23 203 -35 429 -46 920 -11 485 -23 706 -44 845 -44 285 -24 408 91 558
302 394 787 665 1363 761 194 32 363 37 720 21 732 -35 1472 -31 1905 10 82 8
263 19 400 25 138 6 291 15 340 21 97 11 286 46 319 59 27 11 56 3 83 -24z
m155 -157 c13 -17 23 -55 29 -110 6 -46 16 -104 24 -129 8 -25 19 -92 25 -150
15 -142 39 -285 116 -679 35 -184 63 -339 61 -344 -6 -19 -169 705 -246 1093
-78 390 -72 352 -48 348 11 -2 29 -15 39 -29z m-7002 11 c527 -40 910 -180
1213 -443 135 -118 254 -307 311 -497 53 -177 86 -474 86 -785 0 -77 7 -255
15 -395 24 -427 44 -830 65 -1370 42 -1076 51 -1284 65 -1600 17 -362 41 -787
55 -985 6 -71 10 -146 10 -166 l0 -37 -79 53 c-349 234 -754 351 -1296 374
-1184 52 -2140 34 -2985 -57 -280 -30 -404 -32 -1147 -21 -417 6 -403 4 -430
66 -24 59 -22 98 77 1283 86 1023 99 1191 105 1345 8 225 34 782 40 890 52
872 95 1365 170 1955 38 292 42 319 59 345 32 49 53 50 679 37 1119 -23 1293
-24 1747 -12 250 6 509 15 575 19 184 12 515 12 665 1z m-4074 -97 c-13 -113
-46 -512 -61 -748 -14 -226 -22 -389 -60 -1155 -17 -342 -40 -725 -55 -915
-13 -157 -27 -431 -40 -735 -9 -232 -17 -505 -40 -1340 -5 -201 -15 -507 -21
-681 -13 -354 -9 -398 41 -448 l28 -28 304 -6 c681 -15 824 -20 788 -30 -19
-5 -244 -11 -500 -14 -498 -5 -544 -2 -639 46 l-38 20 -7 193 c-7 200 3 541
30 1048 10 200 16 533 19 1030 3 718 9 965 40 1495 17 287 50 735 66 890 5 55
14 285 19 510 5 226 14 469 20 540 13 150 39 365 46 377 3 4 19 8 36 8 l31 0
-7 -57z m11211 -218 c12 -72 36 -238 53 -370 44 -337 68 -507 86 -604 8 -46
13 -85 11 -88 -6 -5 -60 222 -81 337 -9 47 -31 207 -51 355 -39 292 -63 459
-72 488 -4 14 0 18 14 15 15 -3 22 -25 40 -133z m162 -634 c25 -25 29 -52 35
-241 3 -85 14 -225 25 -310 34 -252 22 -252 -24 0 -37 200 -62 367 -79 533 -5
43 12 49 43 18z m-11543 -288 c-9 -412 -23 -494 -25 -152 -1 290 6 449 22 449
6 0 8 -102 3 -297z m11739 -1313 c19 -102 38 -260 32 -266 -10 -10 -67 297
-66 356 0 33 1 34 10 10 6 -14 16 -59 24 -100z m-11469 -855 c-47 -594 -61
-758 -106 -1280 -100 -1153 -104 -1252 -56 -1300 20 -19 36 -22 161 -28 504
-25 772 -29 1330 -23 330 4 974 11 1430 16 457 6 991 13 1187 16 381 7 607 -3
838 -36 260 -38 510 -108 697 -195 53 -25 98 -45 101 -45 10 0 -72 58 -133 95
-312 188 -785 238 -2015 216 -570 -11 -1577 -15 -1569 -7 6 6 529 33 907 47
195 7 545 9 930 6 770 -7 1040 -22 1290 -72 311 -63 555 -178 741 -350 33 -32
61 -52 61 -46 0 19 25 12 48 -12 l22 -24 -21 -19 c-27 -24 -92 -23 -121 2 -11
11 -27 33 -34 51 -11 26 -32 40 -116 81 -211 103 -420 160 -718 199 -117 15
-238 17 -915 17 -441 1 -786 5 -794 10 -8 5 -605 13 -1370 17 -1111 7 -1408
12 -1641 27 -185 11 -293 22 -308 31 -50 27 -62 112 -42 291 10 92 54 619 125
1505 25 308 56 682 70 831 14 149 26 281 27 295 1 13 4 -7 6 -46 2 -38 -4
-160 -12 -270z m11978 -2327 c3 -7 7 -34 10 -60 l5 -46 -37 -6 c-213 -34 -806
-76 -1627 -116 -556 -27 -1097 -68 -2125 -161 -457 -41 -1492 -145 -1630 -164
-67 -9 7 15 125 40 151 32 271 49 610 85 160 17 351 40 425 51 659 98 1044
134 2065 194 1018 60 1541 105 1966 169 184 28 208 30 213 14z m-7744 -138
c244 -13 530 -42 524 -52 -8 -12 -91 -10 -249 7 -78 8 -356 19 -630 25 -776
16 -1638 -10 -2465 -75 -452 -36 -497 -37 -905 -31 -226 3 -437 10 -470 14
-35 5 54 6 210 4 149 -3 398 1 555 7 268 11 426 20 1210 71 173 12 412 24 530
29 312 12 1485 12 1690 1z m7710 -42 c27 -30 40 -80 40 -160 l0 -68 -77 0
c-73 0 -210 -4 -1038 -30 -889 -28 -1599 -56 -2300 -89 -220 -11 -524 -19
-675 -19 -275 0 -333 -4 -905 -56 -254 -24 -572 -42 -550 -31 25 11 659 99
1010 139 789 91 1521 149 2950 236 718 44 1277 80 1375 89 139 13 147 13 170
-11z m-11855 -159 c105 -7 196 -15 204 -19 7 -4 -100 -9 -239 -12 l-253 -5
-36 24 c-19 13 -38 27 -41 30 -3 3 36 3 85 0 50 -4 176 -12 280 -18z m2595
-50 c107 -5 537 -14 955 -18 579 -7 801 -13 930 -25 94 -9 179 -20 190 -25 23
-9 -146 -18 -520 -27 -245 -6 -631 3 -1110 26 -115 5 -561 14 -990 20 -1051
13 -1838 31 -1849 42 -6 4 39 9 100 9 60 1 181 5 269 9 216 11 1781 2 2025
-11z m2137 -15 c66 -8 59 -24 -11 -24 -35 0 -58 5 -66 15 -15 18 -6 19 77 9z
m-2817 -64 c0 -5 -18 -10 -40 -10 -22 0 -40 5 -40 10 0 6 18 10 40 10 22 0 40
-4 40 -10z m1225 -21 c400 -19 335 -28 -160 -23 -432 4 -874 22 -862 34 9 9
784 1 1022 -11z m8282 -74 c249 -7 457 -16 463 -20 26 -16 51 -163 32 -192 -6
-9 -68 -6 -267 12 -444 41 -948 73 -1475 95 -425 18 -1384 23 -1815 11 -220
-7 -553 -16 -740 -21 -195 -5 -472 -20 -650 -35 -274 -23 -757 -43 -730 -30
14 6 346 52 510 70 580 62 1034 81 2370 96 534 6 1049 14 1145 18 286 13 677
11 1157 -4z m-8882 -31 c37 -13 32 -13 -80 -9 -167 7 -215 23 -70 23 69 0 125
-5 150 -14z m1210 6 c15 -6 7 -9 -30 -9 -36 -1 -46 2 -35 9 18 12 38 12 65 0z
m2380 -16 c-149 -43 -187 -58 -224 -91 l-41 -35 0 31 c0 43 40 66 143 81 45 7
91 16 102 21 11 4 31 8 45 7 16 0 7 -5 -25 -14z m254 11 c-5 -4 -104 -26 -184
-40 -32 -5 -38 -4 -27 6 6 7 42 18 80 25 70 13 139 17 131 9z m-1422 -17 c-5
-15 -55 -14 -71 2 -7 7 3 10 33 10 30 0 41 -4 38 -12z m513 -68 c0 -5 -15 -10
-34 -10 -19 0 -38 5 -41 10 -4 6 10 10 34 10 23 0 41 -4 41 -10z m865 -15
c-42 -14 -123 -20 -112 -8 9 9 75 21 117 21 l35 0 -40 -13z m3545 -5 c841 -18
1402 -52 2034 -123 14 -1 22 6 26 22 15 64 53 2 65 -105 6 -51 4 -63 -14 -84
-17 -21 -22 -23 -31 -10 -5 8 -10 38 -10 66 0 28 -6 59 -15 70 -8 10 -15 17
-15 14 -1 -3 -2 -27 -4 -54 -7 -87 46 -84 -681 -41 -601 36 -1910 78 -3280
105 -286 6 -727 15 -980 20 -253 6 -538 10 -632 10 -95 0 -173 4 -173 8 0 8
146 17 1095 67 416 22 916 43 1145 48 180 4 996 -4 1470 -13z m-3854 1 c-3 -4
-19 -11 -36 -15 -31 -6 -73 -40 -82 -67 -3 -8 -8 -11 -12 -8 -10 9 10 55 34
79 13 13 33 20 61 20 22 0 38 -4 35 -9z m-16 -81 c0 -26 -27 -80 -40 -80 -16
0 -12 39 7 71 20 34 33 37 33 9z m-280 -20 c0 -5 -6 -10 -14 -10 -8 0 -18 5
-21 10 -3 6 3 10 14 10 12 0 21 -4 21 -10z m391 -17 c-5 -10 -13 -31 -18 -48
-4 -16 -16 -31 -26 -33 -24 -5 -22 38 4 72 24 30 55 37 40 9z m939 -51 c0 -5
-44 -9 -97 -9 -66 -1 -88 1 -68 7 40 10 165 12 165 2z m-1127 -33 c20 -5 37
-13 37 -18 0 -13 -114 9 -130 25 -13 14 -11 15 20 9 19 -4 52 -11 73 -16z
m3683 -29 c109 -6 532 -24 939 -40 1009 -41 1035 -42 1041 -51 9 -16 -38 -20
-109 -10 -82 12 -348 24 -982 46 -446 15 -934 40 -1080 54 -119 12 -34 12 191
1z"/>
</g>
</svg>
